<svg xmlns="http://www.w3.org/2000/svg" viewBox="0 0 147.06 169.35" id="logo">
  <title>bit_bazaar_logo</title>
  <g id="Layer_2" data-name="Layer 2">
    <g id="Layer_1-2" data-name="Layer 1">
      <path d="M15.72,2.92c2,0,6.56.31,9.46.31,1.83,0,4.09-.08,6.21-.15S35.48,3,36.75,3c6.49,0,8.12,1.16,9.74,3.1a9.94,9.94,0,0,1,1.91,6.19c0,6.35-3.25,10.06-7.56,11.84a24.14,24.14,0,0,1-8.32,1.71l-.07.54c5.85.77,8.89,2.24,10.58,4.26,1.41,1.55,2.12,3.56,2.12,6.66a14.83,14.83,0,0,1-7.91,13.23C34.07,52.31,30,52.86,25,52.86c-4.3,0-8.54-.31-12.91-.24-3.11,0-7.41.16-9.18.24l.22-1C7,51.54,8,51.23,8.66,49.6,10.78,43.72,13,35.36,15.3,27.08,17,21,19.67,11.59,20.8,5.79,21.08,4.7,20,4.32,15.3,4Zm18.91,31a10.81,10.81,0,0,0-.91-4.65c-.71-1.54-2.33-2.55-5.65-2.55a18.89,18.89,0,0,0-3,.23c-2.05,7.82-4.45,16.57-5.86,23.46-.14.77.42,1.24,3,1.24,7.55,0,12.35-8.6,12.35-17.65ZM39,10.35a9.54,9.54,0,0,0-.78-3.63c-.63-1.24-1.55-2.4-4.87-2.4-1.2,0-1.76.3-2.11,1.31-1.56,4.72-4,14.17-5.65,19.74a23.2,23.2,0,0,0,2.82.16C34.7,25.53,39,19.1,39,10.43Z"/>
      <path d="M58.8,0c2.76,0,6.32.32,10.1.32C74,.32,78.12,0,79.5,0l-.37,1-2.68.31c-1.53.16-2,.72-2.76,2.79-1,3-3.56,12.19-6.1,21.43-3,11.07-5.08,19.27-5.59,22.14-.29,1.91.14,2.23,1.52,2.39l3.49.32-.51,1c-1.89,0-7-.32-11.25-.32-5.23,0-8.86.32-10.24.32l.36-1,3.05-.32c1.23-.16,1.82-.56,2.61-2.71,1.09-3,2.47-7.88,6.39-22.14,3-10.91,4.94-18.24,5.59-21,.44-2.07.22-2.71-1.3-2.87L58.37,1Z"/><path d="M75.37,19.82c1.35-3,4.34-11.4,5.41-15.07a25.11,25.11,0,0,0,5.63.86c2.56.08,5.69.15,9.26.15h4.77c9.75,0,13.46,0,16.3-1a107.5,107.5,0,0,0-4.62,15.15l-.93.39a30.58,30.58,0,0,0-.07-10.39c-.57-2.34-1.92-3-8.26-3-2.14,7-4,14.37-6.2,22.49-2.42,9.06-4.41,17.27-5.48,22.73-.36,1.57.07,2.11,1.21,2.19,2.07.31,3.49.47,4.84.55l-.5,1c-1.71,0-7.47-.31-11.89-.31-4.77,0-9.47.31-12,.31l.28-1c.86-.08,2-.24,3.7-.39,1.5-.16,2.28-.47,2.85-2,1.93-5.31,4.2-13.27,7.19-23.9,3.07-11.17,4.78-16.95,5.7-21.71C86.41,6.86,84.77,8,82.49,11A60.19,60.19,0,0,0,76,20.53Z"/><path d="M15.28,63.43c1.88,0,6.24.29,9,.29,1.75,0,3.89-.07,5.91-.15s3.89-.07,5.1-.07c6.17,0,7.72,1.1,9.26,2.94a9.47,9.47,0,0,1,1.81,5.89c0,6-3.09,9.57-7.18,11.27a23.08,23.08,0,0,1-7.92,1.62l-.07.51c5.57.74,8.46,2.14,10.07,4,1.34,1.47,2,3.39,2,6.33a14.12,14.12,0,0,1-7.51,12.59c-3,1.69-6.91,2.21-11.61,2.21-4.1,0-8.12-.3-12.28-.22-3,0-7,.14-8.73.22l.2-1c3.63-.29,4.63-.59,5.24-2.13,2-5.6,4.16-13.55,6.31-21.43,1.61-5.74,4.16-14.72,5.23-20.24.27-1-.74-1.4-5.23-1.69Zm18,29.44a10.24,10.24,0,0,0-.87-4.42C31.72,87,30.18,86,27,86a17.41,17.41,0,0,0-2.82.22C22.26,93.68,20,102,18.63,108.55c-.13.74.41,1.18,2.89,1.18,7.18,0,11.74-8.17,11.74-16.78Zm4.17-22.38A9.3,9.3,0,0,0,36.69,67c-.61-1.17-1.48-2.28-4.63-2.28-1.14,0-1.68.3-2,1.25-1.47,4.49-3.82,13.47-5.37,18.77a21.54,21.54,0,0,0,2.69.15c6,0,10.07-6.11,10.07-14.35Z"/><path d="M80.84,60.09c-.49,4.86-1.2,17.66-1.55,28.23-.35,9.72-.42,16.35-.21,19.2.07,1.32.49,1.93,1.48,2l3.23.38L83.65,111c-2.25-.07-6.4-.3-9.91-.3s-7.95.23-10.41.3l.35-1.08c4.08-.38,4.43-.54,4.64-3.39.49-6.25.92-12.26,1.13-16.66a71.25,71.25,0,0,0-12.45,1c-4.78,8.49-7.31,12.88-8.15,14.89-1.34,3.32-.14,3.78,5.41,4.16L54,111c-1.9-.07-4.5-.3-7.24-.3-4.29,0-6.75.23-8,.3l.21-1.08c3.8-.54,5.14-1.07,7.88-5.39C51.31,97.34,68.39,69.11,70,66.34a7.64,7.64,0,0,0,1.27-2.93l.21-1.24c2.6.16,7-.23,9-2.24Zm-9.92,7.4C68.25,72,65,77.13,58.13,89.09c3.86-.46,6.47-.54,11.46-.77C70,82,70.43,74.2,70.92,67.49Z"/><path d="M98.08,63.48A102.74,102.74,0,0,0,102.74,42,20,20,0,0,0,109,43.32c2,.1,4.66.1,12.69.1h14.18c3.45,0,6.53-.21,11.19-.31A56.09,56.09,0,0,1,142.68,51c-2.43,3.17-7.28,10-18,24.67-12.32,17-17.07,24-22,31.31,20.06,0,24.17-1.43,27.53-5.42,3.82-4.2,6.81-9.93,9.14-15.25l.93.82c-.84,2.76-4.29,15-5.69,22.21a78.17,78.17,0,0,0-8.21-.51c-3.27-.11-6.9-.11-10.45-.11H96.12a111.63,111.63,0,0,0-11.76.31l-.09-.82c11-14.33,34.15-45.64,46.09-62.94h-7.84c-10.54,0-12.87,1.23-16.14,5.83a97.83,97.83,0,0,0-7.27,13Z"/><path d="M42.05,116.44c-.5,4.86-1.2,17.66-1.55,28.23-.35,9.72-.42,16.35-.21,19.21.07,1.31.49,1.92,1.47,2l3.24.39-.14,1.08c-2.25-.08-6.4-.31-9.92-.31s-7.94.23-10.4.31l.35-1.08c4.08-.39,4.43-.54,4.64-3.4.49-6.24.91-12.26,1.13-16.66a70,70,0,0,0-12.45,1c-4.78,8.48-7.31,12.88-8.16,14.88-1.33,3.32-.14,3.78,5.42,4.17l-.28,1.08c-1.9-.08-4.5-.31-7.24-.31-4.29,0-6.75.23-7.95.31l.21-1.08c3.8-.54,5.13-1.08,7.88-5.4,4.43-7.17,21.51-35.4,23.13-38.18a7.48,7.48,0,0,0,1.26-2.93l.21-1.24c2.61.16,7-.23,9-2.23Zm-9.92,7.41c-2.67,4.47-5.9,9.64-12.79,21.59,3.86-.46,6.46-.54,11.46-.77C31.22,138.35,31.64,130.56,32.13,123.85Z"/><path d="M81.16,113c-.54,5.38-1.32,19.56-1.71,31.27-.39,10.77-.47,18.12-.24,21.28.08,1.45.55,2.13,1.64,2.22l3.58.43-.15,1.19c-2.5-.08-7.09-.34-11-.34-4.05,0-8.8.26-11.53.34l.39-1.19c4.52-.43,4.91-.6,5.15-3.76.54-6.93,1-13.59,1.24-18.46a78.94,78.94,0,0,0-13.79,1.11c-5.29,9.4-8.1,14.27-9,16.49-1.48,3.68-.16,4.19,6,4.62l-.32,1.19c-2.1-.08-5-.34-8-.34-4.75,0-7.48.26-8.8.34l.23-1.19c4.21-.6,5.69-1.2,8.73-6,4.9-7.94,23.83-39.22,25.63-42.29a8.5,8.5,0,0,0,1.4-3.25l.23-1.37c2.88.17,7.79-.25,10-2.47Zm-11,8.2c-3,5-6.55,10.68-14.18,23.92,4.28-.51,7.17-.59,12.7-.85C69.17,137.22,69.63,128.59,70.18,121.16Z"/><path d="M98.68,120.69c1,0,5.74.22,8.5.22,2.31,0,7.06-.22,10.88-.22,5.93,0,7.71.87,9.36,2.53s2,4.12,2,6.36c0,8.9-6.79,12.8-16.15,13.53v.43c7.32,1.08,10.81,3.33,10.61,8.46.26,1.95-.2,4.7-1.12,8.53-.59,2.68-.59,5.86,2.51,5.86a5.35,5.35,0,0,0,1.84-.15l-.59,1.09a22.87,22.87,0,0,1-5.08.43c-6.46,0-9.62-2.75-8.43-8.82.46-2.1,1.31-5.57,1.71-7.66,1-5.57-.07-6.87-4.61-7.09a11.83,11.83,0,0,0-3.17,0c-3.43,13.23-4.35,16.85-4.94,19.6-.33,1.59,0,2,1.25,2.16l3.3.37-.4.94c-1.25,0-6.33-.22-10-.22-3.29,0-8,.22-9.62.22l.46-.94,2.24-.29c1.78-.22,2.24-.65,2.9-2.53.86-2,3-9.91,6-20.47,3-10.91,4.42-16.63,4.94-18.94.33-1.52.07-2-1.45-2.1l-3.36-.43Zm15.89,1.16a1.72,1.72,0,0,0-1.78,1.37c-.6,1.66-1.39,4.85-5.41,19.6a7.69,7.69,0,0,0,1.85.14c7.51,0,10.68-9.33,10.68-15.33,0-1.95-.33-3.54-1.12-4.41a3.82,3.82,0,0,0-3.37-1.37Z"/></g></g></svg>